<?xml version="1.0" encoding="UTF-8" standalone="no"?>
<svg
   id="eNMr1wvyKRq1"
   viewBox="0 0 300 230"
   shape-rendering="geometricPrecision"
   text-rendering="geometricPrecision"
   version="1.1"
   sodipodi:docname="desktop.svg"
   width="300"
   height="230"
   inkscape:version="1.2.2 (732a01da63, 2022-12-09)"
   xmlns:inkscape="http://www.inkscape.org/namespaces/inkscape"
   xmlns:sodipodi="http://sodipodi.sourceforge.net/DTD/sodipodi-0.dtd"
   xmlns="http://www.w3.org/2000/svg"
   xmlns:svg="http://www.w3.org/2000/svg">
  <defs
     id="defs9907" />
  <sodipodi:namedview
     id="namedview9905"
     pagecolor="#ffffff"
     bordercolor="#000000"
     borderopacity="0.25"
     inkscape:showpageshadow="2"
     inkscape:pageopacity="0.0"
     inkscape:pagecheckerboard="0"
     inkscape:deskcolor="#d1d1d1"
     showgrid="false"
     inkscape:zoom="2.79"
     inkscape:cx="150"
     inkscape:cy="121.50538"
     inkscape:window-width="1920"
     inkscape:window-height="1017"
     inkscape:window-x="1912"
     inkscape:window-y="-8"
     inkscape:window-maximized="1"
     inkscape:current-layer="eNMr1wvyKRq1" />
  <rect
     width="14.03006"
     height="9.3723593"
     rx="5.7800002"
     ry="4.688158"
     fill="var(--color-back-low)"
     stroke-width="0"
     id="rect9682"
     x="204.61925"
     y="96.216034" />
  <g
     transform="translate(28.547456,-69.142382)"
     id="g9690">
    <rect
       width="17.315054"
       height="23.727707"
       rx="3"
       ry="3"
       transform="matrix(0.738711,0,0,1,14.170913,148.89165)"
       fill="var(--color-back-low)"
       stroke-width="0"
       id="rect9684"
       x="0"
       y="0" />
    <circle
       transform="matrix(0.842603,0,0,0.842601,20.566323,156.18962)"
       fill="var(--color-back)"
       stroke-width="0"
       id="ellipse9686"
       cx="0"
       cy="0"
       r="5.9745851" />
    <circle
       transform="matrix(0.5697,0,0,0.569697,20.566323,156.18962)"
       fill="var(--color-back-low)"
       stroke-width="0"
       id="ellipse9688"
       cx="0"
       cy="0"
       r="5.9745851" />
  </g>
  <g
     transform="translate(237.60986,-68.67407)"
     id="g9698">
    <rect
       width="17.315054"
       height="23.727707"
       rx="3"
       ry="3"
       transform="matrix(0.738711,0,0,1,14.170913,148.89165)"
       fill="var(--color-back-low)"
       stroke-width="0"
       id="rect9692"
       x="0"
       y="0" />
    <circle
       transform="matrix(0.842603,0,0,0.842601,20.566323,156.18962)"
       fill="var(--color-back)"
       stroke-width="0"
       id="ellipse9694"
       cx="0"
       cy="0"
       r="5.9745851" />
    <circle
       transform="matrix(0.5697,0,0,0.569697,20.566323,156.18962)"
       fill="var(--color-back-low)"
       stroke-width="0"
       id="ellipse9696"
       cx="0"
       cy="0"
       r="5.9745851" />
  </g>
  <g
     id="g9708"
     transform="translate(-1.0752688,-70.250896)">
    <rect
       width="234.35927"
       height="6.3044009"
       rx="2"
       ry="2"
       transform="translate(32.820369,178.79696)"
       fill="var(--color-back-low)"
       stroke-width="0"
       id="rect9700"
       x="0"
       y="0" />
    <rect
       width="234.35927"
       height="6.3044009"
       rx="2"
       ry="2"
       transform="matrix(0.029934,0,0,18.716996,38.449456,182.00055)"
       fill="var(--color-back-low)"
       stroke-width="0"
       id="rect9702"
       x="0"
       y="0" />
    <rect
       width="234.35927"
       height="6.3044009"
       rx="2"
       ry="2"
       transform="matrix(0.029934,0,0,18.716996,253.42209,182.00055)"
       fill="var(--color-back-low)"
       stroke-width="0"
       id="rect9704"
       x="0"
       y="0" />
    <rect
       width="285.88898"
       height="10.747705"
       rx="2"
       ry="2"
       transform="matrix(1,0,0,0.674753,7.055514,172.69711)"
       fill="var(--color-back)"
       stroke-width="0"
       stroke-linecap="round"
       id="rect9706"
       x="0"
       y="0" />
  </g>
  <g
     transform="matrix(1,0,0,1.1935,15.559944,-121.41829)"
     id="g9720">
    <rect
       width="14.402925"
       height="12.202478"
       rx="0"
       ry="0"
       transform="matrix(0.583331,0,0,1.311809,80.3327,152.75185)"
       fill="var(--color-back-low)"
       stroke-width="0"
       id="rect9710"
       x="0"
       y="0" />
    <rect
       width="14.402925"
       height="12.202478"
       rx="0"
       ry="0"
       transform="matrix(1.987683,0,0,0.322716,70.219311,168.75918)"
       fill="var(--color-back)"
       stroke-width="0"
       id="rect9712"
       x="0"
       y="0" />
    <rect
       width="109.29059"
       height="57.441101"
       rx="2"
       ry="2"
       transform="translate(29.888232,102.59442)"
       fill="var(--color-back)"
       stroke-width="0"
       id="rect9714"
       x="0"
       y="0" />
    <rect
       width="111.70862"
       height="45.875729"
       rx="0"
       ry="0"
       transform="matrix(0.93533,0,0,1.095388,32.291326,104.58581)"
       fill="var(--color-back-low)"
       stroke-width="0"
       id="rect9716"
       x="0"
       y="0" />
    <rect
       width="4.7635512"
       height="2.3174031"
       rx="0"
       ry="0"
       transform="translate(130.41852,157.58937)"
       fill="var(--color-back-low)"
       stroke-width="0"
       id="rect9718"
       x="0"
       y="0" />
  </g>
  <g
     transform="matrix(1,0,0,1.1935,125.3602,-121.41829)"
     id="g9732">
    <rect
       width="14.402925"
       height="12.202478"
       rx="0"
       ry="0"
       transform="matrix(0.583331,0,0,1.311809,80.3327,152.75185)"
       fill="var(--color-back-low)"
       stroke-width="0"
       id="rect9722"
       x="0"
       y="0" />
    <rect
       width="14.402925"
       height="12.202478"
       rx="0"
       ry="0"
       transform="matrix(1.987683,0,0,0.322716,70.219311,168.75918)"
       fill="var(--color-back)"
       stroke-width="0"
       id="rect9724"
       x="0"
       y="0" />
    <rect
       width="109.29059"
       height="57.441101"
       rx="2"
       ry="2"
       transform="translate(29.888232,102.64921)"
       fill="var(--color-back)"
       stroke-width="0"
       id="rect9726"
       x="0"
       y="0" />
    <rect
       width="111.70862"
       height="45.875729"
       rx="0"
       ry="0"
       transform="matrix(0.93533,0,0,1.095388,32.291326,104.6406)"
       fill="var(--color-back-low)"
       stroke-width="0"
       id="rect9728"
       x="0"
       y="0" />
    <rect
       width="4.7635512"
       height="2.3174031"
       rx="0"
       ry="0"
       transform="translate(130.41852,157.64417)"
       fill="var(--color-back-low)"
       stroke-width="0"
       id="rect9730"
       x="0"
       y="0" />
  </g>
  <g
     transform="matrix(1.374544,0,0,1,-20.63233,46.844514)"
     id="g9740">
    <rect
       width="2.35569"
       height="16.228086"
       rx="0"
       ry="0"
       transform="translate(60.313419,39.388551)"
       fill="var(--color-back-low)"
       stroke-width="0"
       id="rect9734"
       x="0"
       y="0" />
    <rect
       width="2.35569"
       height="16.228086"
       rx="0"
       ry="0"
       transform="translate(116.16056,39.388551)"
       fill="var(--color-back-low)"
       stroke-width="0"
       id="rect9736"
       x="0"
       y="0" />
    <rect
       width="2.35569"
       height="16.228086"
       rx="0"
       ry="0"
       transform="matrix(27.018696,0,0,0.189467,57.591018,37.851208)"
       fill="var(--color-back-low)"
       stroke-width="0"
       id="rect9738"
       x="0"
       y="0" />
  </g>
  <g
     transform="matrix(1.374544,0,0,1,79.006611,46.844514)"
     id="g9748">
    <rect
       width="2.35569"
       height="16.228086"
       rx="0"
       ry="0"
       transform="translate(60.313419,39.388551)"
       fill="var(--color-back-low)"
       stroke-width="0"
       id="rect9742"
       x="0"
       y="0" />
    <rect
       width="2.35569"
       height="16.228086"
       rx="0"
       ry="0"
       transform="translate(116.16056,39.388551)"
       fill="var(--color-back-low)"
       stroke-width="0"
       id="rect9744"
       x="0"
       y="0" />
    <rect
       width="2.35569"
       height="16.228086"
       rx="0"
       ry="0"
       transform="matrix(27.018696,0,0,0.189467,57.591018,37.851208)"
       fill="var(--color-back-low)"
       stroke-width="0"
       id="rect9746"
       x="0"
       y="0" />
  </g>
  <rect
     width="85.550011"
     height="4.4342036"
     rx="0"
     ry="0"
     fill="var(--color-back)"
     stroke-width="0"
     id="rect9750"
     x="110.11469"
     y="97.999725" />
  <g
     transform="matrix(0.701901,0,0,0.710594,33.148379,-57.109833)"
     id="g9756">
    <rect
       width="18.132513"
       height="22.854521"
       rx="0"
       ry="0"
       transform="translate(57.626969,201.76283)"
       fill="var(--color-back)"
       stroke-width="0"
       id="rect9752"
       x="0"
       y="0" />
    <path
       d="m 75.759481,207.08109 q 5.224488,0 5.224478,5.01674 -1e-5,4.88352 -5.224478,4.88352"
       transform="translate(-2.849403,-0.871793)"
       fill="none"
       stroke="var(--color-back)"
       stroke-width="3"
       stroke-miterlimit="10"
       id="path9754" />
  </g>
  <rect
     width="52.235466"
     height="46.23138"
     rx="0"
     ry="0"
     fill="var(--color-front)"
     stroke-width="0"
     id="rect9758"
     x="53.593014"
     y="183.51772" />
  <g
     transform="matrix(0.595827,0,0,0.595823,19.772594,10.583435)"
     id="g9784">
    <rect
       width="93.378944"
       height="19.196367"
       rx="2"
       ry="2"
       transform="translate(53.907105,276.96983)"
       fill="var(--color-front-low)"
       stroke-width="0"
       id="rect9760"
       x="0"
       y="0" />
    <rect
       width="6.4259028"
       height="6.4259028"
       rx="0"
       ry="0"
       transform="translate(59.696058,282.98903)"
       fill="var(--color-front)"
       stroke-width="0"
       id="rect9762"
       x="0"
       y="0" />
    <rect
       width="6.4259028"
       height="6.4259028"
       rx="0"
       ry="0"
       transform="translate(75.368197,282.98903)"
       fill="var(--color-front)"
       stroke-width="0"
       id="rect9764"
       x="0"
       y="0" />
    <rect
       width="6.4259028"
       height="6.4259028"
       rx="0"
       ry="0"
       transform="translate(82.95973,282.98903)"
       fill="var(--color-front)"
       stroke-width="0"
       id="rect9766"
       x="0"
       y="0" />
    <rect
       width="6.4259028"
       height="6.4259028"
       rx="0"
       ry="0"
       transform="translate(90.585707,282.98903)"
       fill="var(--color-front)"
       stroke-width="0"
       id="rect9768"
       x="0"
       y="0" />
    <rect
       width="6.4259028"
       height="6.4259028"
       rx="0"
       ry="0"
       transform="translate(98.151538,282.98903)"
       fill="var(--color-front)"
       stroke-width="0"
       id="rect9770"
       x="0"
       y="0" />
    <rect
       width="6.4259028"
       height="6.4259028"
       rx="0"
       ry="0"
       transform="translate(105.78076,282.88554)"
       fill="var(--color-front)"
       stroke-width="0"
       id="rect9772"
       x="0"
       y="0" />
    <rect
       width="6.4259028"
       height="6.4259028"
       rx="0"
       ry="0"
       transform="translate(113.65383,282.88554)"
       fill="var(--color-front)"
       stroke-width="0"
       id="rect9774"
       x="0"
       y="0" />
    <rect
       width="6.4259028"
       height="6.4259028"
       rx="0"
       ry="0"
       transform="translate(67.554137,282.98903)"
       fill="var(--color-front)"
       stroke-width="0"
       id="rect9776"
       x="0"
       y="0" />
    <circle
       transform="translate(131.06978,282.99605)"
       fill="var(--color-front)"
       stroke-width="0"
       id="ellipse9778"
       cx="0"
       cy="0"
       r="1.879733" />
    <circle
       transform="translate(139.33682,282.99605)"
       fill="var(--color-front)"
       stroke-width="0"
       id="ellipse9780"
       cx="0"
       cy="0"
       r="1.879733" />
    <circle
       transform="matrix(1.381985,0,0,1.381987,135.54727,289.41493)"
       fill="var(--color-front)"
       stroke-width="0"
       id="ellipse9782"
       cx="0"
       cy="0"
       r="1.879733" />
  </g>
  <g
     transform="matrix(0.595827,0,0,0.595823,19.772594,23.825252)"
     id="g9810">
    <rect
       width="93.378944"
       height="19.196367"
       rx="2"
       ry="2"
       transform="translate(53.907105,276.96983)"
       fill="var(--color-front-low)"
       stroke-width="0"
       id="rect9786"
       x="0"
       y="0" />
    <rect
       width="6.4259028"
       height="6.4259028"
       rx="0"
       ry="0"
       transform="translate(59.696058,282.98903)"
       fill="var(--color-front)"
       stroke-width="0"
       id="rect9788"
       x="0"
       y="0" />
    <rect
       width="6.4259028"
       height="6.4259028"
       rx="0"
       ry="0"
       transform="translate(75.368197,282.98903)"
       fill="var(--color-front)"
       stroke-width="0"
       id="rect9790"
       x="0"
       y="0" />
    <rect
       width="6.4259028"
       height="6.4259028"
       rx="0"
       ry="0"
       transform="translate(82.95973,282.98903)"
       fill="var(--color-front)"
       stroke-width="0"
       id="rect9792"
       x="0"
       y="0" />
    <rect
       width="6.4259028"
       height="6.4259028"
       rx="0"
       ry="0"
       transform="translate(90.482224,282.98903)"
       fill="var(--color-front)"
       stroke-width="0"
       id="rect9794"
       x="0"
       y="0" />
    <rect
       width="6.4259028"
       height="6.4259028"
       rx="0"
       ry="0"
       transform="translate(98.048055,282.98903)"
       fill="var(--color-front)"
       stroke-width="0"
       id="rect9796"
       x="0"
       y="0" />
    <rect
       width="6.4259028"
       height="6.4259028"
       rx="0"
       ry="0"
       transform="translate(105.57379,282.98903)"
       fill="var(--color-front)"
       stroke-width="0"
       id="rect9798"
       x="0"
       y="0" />
    <rect
       width="6.4259028"
       height="6.4259028"
       rx="0"
       ry="0"
       transform="translate(113.44686,282.98903)"
       fill="var(--color-front)"
       stroke-width="0"
       id="rect9800"
       x="0"
       y="0" />
    <rect
       width="6.4259028"
       height="6.4259028"
       rx="0"
       ry="0"
       transform="translate(67.65762,282.98903)"
       fill="var(--color-front)"
       stroke-width="0"
       id="rect9802"
       x="0"
       y="0" />
    <circle
       transform="translate(131.06978,282.99605)"
       fill="var(--color-front)"
       stroke-width="0"
       id="ellipse9804"
       cx="0"
       cy="0"
       r="1.879733" />
    <circle
       transform="translate(139.33682,282.99605)"
       fill="var(--color-front)"
       stroke-width="0"
       id="ellipse9806"
       cx="0"
       cy="0"
       r="1.879733" />
    <circle
       transform="matrix(1.381985,0,0,1.381987,135.54727,289.41493)"
       fill="var(--color-front)"
       stroke-width="0"
       id="ellipse9808"
       cx="0"
       cy="0"
       r="1.879733" />
  </g>
  <g
     transform="matrix(0.595827,0,0,0.595823,19.772594,36.897054)"
     id="g9836">
    <rect
       width="93.378944"
       height="19.196367"
       rx="2"
       ry="2"
       transform="translate(53.907105,276.96983)"
       fill="var(--color-front-low)"
       stroke-width="0"
       id="rect9812"
       x="0"
       y="0" />
    <rect
       width="6.4259028"
       height="6.4259028"
       rx="0"
       ry="0"
       transform="translate(59.696058,282.98903)"
       fill="var(--color-front)"
       stroke-width="0"
       id="rect9814"
       x="0"
       y="0" />
    <rect
       width="6.4259028"
       height="6.4259028"
       rx="0"
       ry="0"
       transform="translate(75.368197,282.98903)"
       fill="var(--color-front)"
       stroke-width="0"
       id="rect9816"
       x="0"
       y="0" />
    <rect
       width="6.4259028"
       height="6.4259028"
       rx="0"
       ry="0"
       transform="translate(82.95973,282.98903)"
       fill="var(--color-front)"
       stroke-width="0"
       id="rect9818"
       x="0"
       y="0" />
    <rect
       width="6.4259028"
       height="6.4259028"
       rx="0"
       ry="0"
       transform="translate(90.482224,282.98903)"
       fill="var(--color-front)"
       stroke-width="0"
       id="rect9820"
       x="0"
       y="0" />
    <rect
       width="6.4259028"
       height="6.4259028"
       rx="0"
       ry="0"
       transform="translate(98.048055,282.98903)"
       fill="var(--color-front)"
       stroke-width="0"
       id="rect9822"
       x="0"
       y="0" />
    <rect
       width="6.4259028"
       height="6.4259028"
       rx="0"
       ry="0"
       transform="translate(105.57379,282.98903)"
       fill="var(--color-front)"
       stroke-width="0"
       id="rect9824"
       x="0"
       y="0" />
    <rect
       width="6.4259028"
       height="6.4259028"
       rx="0"
       ry="0"
       transform="translate(113.44686,282.98903)"
       fill="var(--color-front)"
       stroke-width="0"
       id="rect9826"
       x="0"
       y="0" />
    <rect
       width="6.4259028"
       height="6.4259028"
       rx="0"
       ry="0"
       transform="translate(67.65762,282.98903)"
       fill="var(--color-front)"
       stroke-width="0"
       id="rect9828"
       x="0"
       y="0" />
    <circle
       transform="translate(131.06978,282.99605)"
       fill="var(--color-front)"
       stroke-width="0"
       id="ellipse9830"
       cx="0"
       cy="0"
       r="1.879733" />
    <circle
       transform="translate(139.33682,282.99605)"
       fill="var(--color-front)"
       stroke-width="0"
       id="ellipse9832"
       cx="0"
       cy="0"
       r="1.879733" />
    <circle
       transform="matrix(1.381985,0,0,1.381987,135.54727,289.41493)"
       fill="var(--color-front)"
       stroke-width="0"
       id="ellipse9834"
       cx="0"
       cy="0"
       r="1.879733" />
  </g>
  <g
     transform="matrix(0.595827,0,0,0.595823,20.168481,50.178784)"
     id="g9862">
    <rect
       width="93.378944"
       height="19.196367"
       rx="2"
       ry="2"
       transform="translate(53.907105,276.96983)"
       fill="var(--color-front-low)"
       stroke-width="0"
       id="rect9838"
       x="0"
       y="0" />
    <rect
       width="6.4259028"
       height="6.4259028"
       rx="0"
       ry="0"
       transform="translate(59.696058,282.98903)"
       fill="var(--color-front)"
       stroke-width="0"
       id="rect9840"
       x="0"
       y="0" />
    <rect
       width="6.4259028"
       height="6.4259028"
       rx="0"
       ry="0"
       transform="translate(75.368197,282.98903)"
       fill="var(--color-front)"
       stroke-width="0"
       id="rect9842"
       x="0"
       y="0" />
    <rect
       width="6.4259028"
       height="6.4259028"
       rx="0"
       ry="0"
       transform="translate(82.95973,282.98903)"
       fill="var(--color-front)"
       stroke-width="0"
       id="rect9844"
       x="0"
       y="0" />
    <rect
       width="6.4259028"
       height="6.4259028"
       rx="0"
       ry="0"
       transform="translate(90.482224,282.98903)"
       fill="var(--color-front)"
       stroke-width="0"
       id="rect9846"
       x="0"
       y="0" />
    <rect
       width="6.4259028"
       height="6.4259028"
       rx="0"
       ry="0"
       transform="translate(98.048055,282.98903)"
       fill="var(--color-front)"
       stroke-width="0"
       id="rect9848"
       x="0"
       y="0" />
    <rect
       width="6.4259028"
       height="6.4259028"
       rx="0"
       ry="0"
       transform="translate(105.57379,282.98903)"
       fill="var(--color-front)"
       stroke-width="0"
       id="rect9850"
       x="0"
       y="0" />
    <rect
       width="6.4259028"
       height="6.4259028"
       rx="0"
       ry="0"
       transform="translate(113.44686,282.98903)"
       fill="var(--color-front)"
       stroke-width="0"
       id="rect9852"
       x="0"
       y="0" />
    <rect
       width="6.4259028"
       height="6.4259028"
       rx="0"
       ry="0"
       transform="translate(67.65762,282.98903)"
       fill="var(--color-front)"
       stroke-width="0"
       id="rect9854"
       x="0"
       y="0" />
    <circle
       transform="translate(131.06978,282.99605)"
       fill="var(--color-front)"
       stroke-width="0"
       id="ellipse9856"
       cx="0"
       cy="0"
       r="1.879733" />
    <circle
       transform="translate(139.33682,282.99605)"
       fill="var(--color-front)"
       stroke-width="0"
       id="ellipse9858"
       cx="0"
       cy="0"
       r="1.879733" />
    <circle
       transform="matrix(1.381985,0,0,1.381987,135.54727,289.41493)"
       fill="var(--color-front)"
       stroke-width="0"
       id="ellipse9860"
       cx="0"
       cy="0"
       r="1.879733" />
  </g>
  <g
     transform="matrix(0.699632,0,0,0.644299,15.909184,29.35788)"
     id="g9902">
    <rect
       width="39.169025"
       height="22.479614"
       rx="2"
       ry="2"
       transform="matrix(1.134116,0,0,1.393939,57.417969,195.72453)"
       fill="var(--color-front-low)"
       stroke-width="0"
       id="rect9864"
       x="0"
       y="0" />
    <rect
       width="39.169025"
       height="22.479614"
       rx="2"
       ry="2"
       transform="matrix(0.867391,0,0,1.1723,60.266781,198.21571)"
       fill="var(--color-front)"
       stroke-width="0"
       id="rect9866"
       x="0"
       y="0" />
    <g
       id="g9872">
      <rect
         width="39.169025"
         height="22.479614"
         rx="2"
         ry="2"
         transform="matrix(0.188982,0,0,1.102159,61.22815,199.00408)"
         fill="var(--color-front-low)"
         stroke-width="0"
         id="rect9868"
         x="0"
         y="0" />
      <circle
         transform="translate(64.968351,220.43682)"
         fill="var(--color-front)"
         stroke-width="0"
         id="ellipse9870"
         cx="0"
         cy="0"
         r="1.0913219" />
    </g>
    <g
       transform="translate(8.245644)"
       id="g9878">
      <rect
         width="39.169025"
         height="22.479614"
         rx="2"
         ry="2"
         transform="matrix(0.188982,0,0,1.102159,61.22815,199.00408)"
         fill="var(--color-front-low)"
         stroke-width="0"
         id="rect9874"
         x="0"
         y="0" />
      <circle
         transform="translate(64.968351,220.43682)"
         fill="var(--color-front)"
         stroke-width="0"
         id="ellipse9876"
         cx="0"
         cy="0"
         r="1.0913219" />
    </g>
    <g
       transform="translate(16.428867)"
       id="g9884">
      <rect
         width="39.169025"
         height="22.479614"
         rx="2"
         ry="2"
         transform="matrix(0.188982,0,0,1.102159,61.22815,199.00408)"
         fill="var(--color-front-low)"
         stroke-width="0"
         id="rect9880"
         x="0"
         y="0" />
      <circle
         transform="translate(64.968351,220.43682)"
         fill="var(--color-front)"
         stroke-width="0"
         id="ellipse9882"
         cx="0"
         cy="0"
         r="1.0913219" />
    </g>
    <g
       transform="translate(24.603991)"
       id="g9890">
      <rect
         width="39.169025"
         height="22.479614"
         rx="2"
         ry="2"
         transform="matrix(0.188982,0,0,1.102159,61.22815,199.00408)"
         fill="var(--color-front-low)"
         stroke-width="0"
         id="rect9886"
         x="0"
         y="0" />
      <circle
         transform="translate(64.968351,220.43682)"
         fill="var(--color-front)"
         stroke-width="0"
         id="ellipse9888"
         cx="0"
         cy="0"
         r="1.0913219" />
    </g>
    <rect
       width="2.917155"
       height="2.2530811"
       rx="0"
       ry="0"
       transform="matrix(1,0,0,0.411765,98.865716,201.25303)"
       fill="var(--color-front)"
       stroke-width="0"
       id="rect9892"
       x="0"
       y="0" />
    <rect
       width="2.917155"
       height="2.2530811"
       rx="0"
       ry="0"
       transform="matrix(1,0,0,0.411765,98.865726,204.27012)"
       fill="var(--color-front)"
       stroke-width="0"
       id="rect9894"
       x="0"
       y="0" />
    <rect
       width="2.917155"
       height="2.2530811"
       rx="0"
       ry="0"
       transform="matrix(1,0,0,0.411765,98.923021,207.15008)"
       fill="var(--color-front)"
       stroke-width="0"
       id="rect9896"
       x="0"
       y="0" />
    <rect
       width="2.917155"
       height="2.2530811"
       rx="0"
       ry="0"
       transform="matrix(1,0,0,0.411765,98.865716,210.04246)"
       fill="var(--color-front)"
       stroke-width="0"
       id="rect9898"
       x="0"
       y="0" />
    <rect
       width="2.917155"
       height="2.2530811"
       rx="0"
       ry="0"
       transform="matrix(1,0,0,1.986043,97.407138,218.70242)"
       fill="var(--color-front)"
       stroke-width="0"
       id="rect9900"
       x="0"
       y="0" />
  </g>
</svg>
