<?xml version="1.0" encoding="UTF-8" standalone="no"?>
<svg id="eNMr1wvyKRq1" viewBox="0 0 300 230" shape-rendering="geometricPrecision" text-rendering="geometricPrecision"
   version="1.1" sodipodi:docname="desktop.svg" width="300" height="230"
   inkscape:version="1.2.2 (732a01da63, 2022-12-09)" xml:space="preserve"
   xmlns:inkscape="http://www.inkscape.org/namespaces/inkscape"
   xmlns:sodipodi="http://sodipodi.sourceforge.net/DTD/sodipodi-0.dtd" xmlns="http://www.w3.org/2000/svg"
   xmlns:svg="http://www.w3.org/2000/svg">
   <defs id="defs9907" />
   <sodipodi:namedview id="namedview9905" pagecolor="#ffffff" bordercolor="#000000" borderopacity="0.25"
      inkscape:showpageshadow="2" inkscape:pageopacity="0.0" inkscape:pagecheckerboard="0" inkscape:deskcolor="#d1d1d1"
      showgrid="false" inkscape:zoom="3.9456558" inkscape:cx="63.994431" inkscape:cy="79.074307"
      inkscape:window-width="1920" inkscape:window-height="1017" inkscape:window-x="1912" inkscape:window-y="-8"
      inkscape:window-maximized="1" inkscape:current-layer="g2176" />
   <rect width="14.03006" height="9.3723593" rx="5.7800002" ry="4.688158" fill="var(--color-back-low)" stroke-width="0"
      id="rect9682" x="204.61925" y="96.216034" />
   <g transform="translate(28.547456,-69.142382)" id="g9690">
      <rect width="17.315054" height="23.727707" rx="3" ry="3" transform="matrix(0.738711,0,0,1,14.170913,148.89165)"
         fill="var(--color-back-low)" stroke-width="0" id="rect9684" x="0" y="0" />
      <circle transform="matrix(0.842603,0,0,0.842601,20.566323,156.18962)" fill="var(--color-back)" stroke-width="0"
         id="ellipse9686" cx="0" cy="0" r="5.9745851" />
      <circle transform="matrix(0.5697,0,0,0.569697,20.566323,156.18962)" fill="var(--color-back-low)" stroke-width="0"
         id="ellipse9688" cx="0" cy="0" r="5.9745851" />
   </g>
   <g transform="translate(237.60986,-68.67407)" id="g9698">
      <rect width="17.315054" height="23.727707" rx="3" ry="3" transform="matrix(0.738711,0,0,1,14.170913,148.89165)"
         fill="var(--color-back-low)" stroke-width="0" id="rect9692" x="0" y="0" />
      <circle transform="matrix(0.842603,0,0,0.842601,20.566323,156.18962)" fill="var(--color-back)" stroke-width="0"
         id="ellipse9694" cx="0" cy="0" r="5.9745851" />
      <circle transform="matrix(0.5697,0,0,0.569697,20.566323,156.18962)" fill="var(--color-back-low)" stroke-width="0"
         id="ellipse9696" cx="0" cy="0" r="5.9745851" />
   </g>
   <g id="g9708" transform="translate(-1.0752688,-70.250896)">
      <rect width="234.35927" height="6.3044009" rx="2" ry="2" transform="translate(32.820369,178.79696)"
         fill="var(--color-back-low)" stroke-width="0" id="rect9700" x="0" y="0" />
      <rect width="234.35927" height="6.3044009" rx="2" ry="2"
         transform="matrix(0.029934,0,0,18.716996,38.449456,182.00055)" fill="var(--color-back-low)" stroke-width="0"
         id="rect9702" x="0" y="0" />
      <rect width="234.35927" height="6.3044009" rx="2" ry="2"
         transform="matrix(0.029934,0,0,18.716996,253.42209,182.00055)" fill="var(--color-back-low)" stroke-width="0"
         id="rect9704" x="0" y="0" />
      <rect width="285.88898" height="10.747705" rx="2" ry="2" transform="matrix(1,0,0,0.674753,7.055514,172.69711)"
         fill="var(--color-back)" stroke-width="0" stroke-linecap="round" id="rect9706" x="0" y="0" />
   </g>
   <g transform="matrix(1,0,0,1.1935,15.559944,-121.41829)" id="g9720">
      <rect width="14.402925" height="12.202478" rx="0" ry="0"
         transform="matrix(0.583331,0,0,1.311809,80.3327,152.75185)" fill="var(--color-back-low)" stroke-width="0"
         id="rect9710" x="0" y="0" />
      <rect width="14.402925" height="12.202478" rx="0" ry="0"
         transform="matrix(1.987683,0,0,0.322716,70.219311,168.75918)" fill="var(--color-back)" stroke-width="0"
         id="rect9712" x="0" y="0" />
      <rect width="109.29059" height="57.441101" rx="2" ry="2" transform="translate(29.888232,102.59442)"
         fill="var(--color-back)" stroke-width="0" id="rect9714" x="0" y="0" />
      <rect width="111.70862" height="45.875729" rx="0" ry="0"
         transform="matrix(0.93533,0,0,1.095388,32.291326,104.58581)" fill="var(--color-back-low)" stroke-width="0"
         id="rect9716" x="0" y="0" />
      <rect width="4.7635512" height="2.3174031" rx="0" ry="0" transform="translate(130.41852,157.58937)"
         fill="var(--color-back-low)" stroke-width="0" id="rect9718" x="0" y="0" />
   </g>
   <g transform="matrix(1,0,0,1.1935,125.3602,-121.41829)" id="g9732">
      <rect width="14.402925" height="12.202478" rx="0" ry="0"
         transform="matrix(0.583331,0,0,1.311809,80.3327,152.75185)" fill="var(--color-back-low)" stroke-width="0"
         id="rect9722" x="0" y="0" />
      <rect width="14.402925" height="12.202478" rx="0" ry="0"
         transform="matrix(1.987683,0,0,0.322716,70.219311,168.75918)" fill="var(--color-back)" stroke-width="0"
         id="rect9724" x="0" y="0" />
      <rect width="109.29059" height="57.441101" rx="2" ry="2" transform="translate(29.888232,102.64921)"
         fill="var(--color-back)" stroke-width="0" id="rect9726" x="0" y="0" />
      <rect width="111.70862" height="45.875729" rx="0" ry="0"
         transform="matrix(0.93533,0,0,1.095388,32.291326,104.6406)" fill="var(--color-back-low)" stroke-width="0"
         id="rect9728" x="0" y="0" />
      <rect width="4.7635512" height="2.3174031" rx="0" ry="0" transform="translate(130.41852,157.64417)"
         fill="var(--color-back-low)" stroke-width="0" id="rect9730" x="0" y="0" />
   </g>
   <g transform="matrix(1.374544,0,0,1,-20.63233,46.844514)" id="g9740">
      <rect width="2.35569" height="16.228086" rx="0" ry="0" transform="translate(60.313419,39.388551)"
         fill="var(--color-back-low)" stroke-width="0" id="rect9734" x="0" y="0" />
      <rect width="2.35569" height="16.228086" rx="0" ry="0" transform="translate(116.16056,39.388551)"
         fill="var(--color-back-low)" stroke-width="0" id="rect9736" x="0" y="0" />
      <rect width="2.35569" height="16.228086" rx="0" ry="0"
         transform="matrix(27.018696,0,0,0.189467,57.591018,37.851208)" fill="var(--color-back-low)" stroke-width="0"
         id="rect9738" x="0" y="0" />
   </g>
   <g transform="matrix(1.374544,0,0,1,79.006611,46.844514)" id="g9748">
      <rect width="2.35569" height="16.228086" rx="0" ry="0" transform="translate(60.313419,39.388551)"
         fill="var(--color-back-low)" stroke-width="0" id="rect9742" x="0" y="0" />
      <rect width="2.35569" height="16.228086" rx="0" ry="0" transform="translate(116.16056,39.388551)"
         fill="var(--color-back-low)" stroke-width="0" id="rect9744" x="0" y="0" />
      <rect width="2.35569" height="16.228086" rx="0" ry="0"
         transform="matrix(27.018696,0,0,0.189467,57.591018,37.851208)" fill="var(--color-back-low)" stroke-width="0"
         id="rect9746" x="0" y="0" />
   </g>
   <rect width="85.550011" height="4.4342036" rx="0" ry="0" fill="var(--color-back)" stroke-width="0" id="rect9750"
      x="110.11469" y="97.999725" />
   <g transform="matrix(0.701901,0,0,0.710594,33.148379,-57.109833)" id="g9756">
      <rect width="18.132513" height="22.854521" rx="0" ry="0" transform="translate(57.626969,201.76283)"
         fill="var(--color-back)" stroke-width="0" id="rect9752" x="0" y="0" />
      <path d="m 75.759481,207.08109 q 5.224488,0 5.224478,5.01674 -1e-5,4.88352 -5.224478,4.88352"
         transform="translate(-2.849403,-0.871793)" fill="none" stroke="var(--color-back)" stroke-width="3"
         stroke-miterlimit="10" id="path9754" />
   </g>
   <g data-select-target="network" id="g231">
      <rect width="52.235466" height="46.23138" rx="0" ry="0" fill="var(--color-front)" stroke-width="0" id="rect9758"
         x="53.593014" y="183.51772" />
      <g transform="matrix(0.595827,0,0,0.595823,19.772594,10.583435)" id="g9784">
         <rect width="93.378944" height="19.196367" rx="2" ry="2" transform="translate(53.907105,276.96983)"
            fill="var(--color-front-low)" stroke-width="0" id="rect9760" x="0" y="0" />
         <rect width="6.4259028" height="6.4259028" rx="0" ry="0" transform="translate(59.696058,282.98903)"
            fill="var(--color-front)" stroke-width="0" id="rect9762" x="0" y="0" />
         <rect width="6.4259028" height="6.4259028" rx="0" ry="0" transform="translate(75.368197,282.98903)"
            fill="var(--color-front)" stroke-width="0" id="rect9764" x="0" y="0" />
         <rect width="6.4259028" height="6.4259028" rx="0" ry="0" transform="translate(82.95973,282.98903)"
            fill="var(--color-front)" stroke-width="0" id="rect9766" x="0" y="0" />
         <rect width="6.4259028" height="6.4259028" rx="0" ry="0" transform="translate(90.585707,282.98903)"
            fill="var(--color-front)" stroke-width="0" id="rect9768" x="0" y="0" />
         <rect width="6.4259028" height="6.4259028" rx="0" ry="0" transform="translate(98.151538,282.98903)"
            fill="var(--color-front)" stroke-width="0" id="rect9770" x="0" y="0" />
         <rect width="6.4259028" height="6.4259028" rx="0" ry="0" transform="translate(105.78076,282.88554)"
            fill="var(--color-front)" stroke-width="0" id="rect9772" x="0" y="0" />
         <rect width="6.4259028" height="6.4259028" rx="0" ry="0" transform="translate(113.65383,282.88554)"
            fill="var(--color-front)" stroke-width="0" id="rect9774" x="0" y="0" />
         <rect width="6.4259028" height="6.4259028" rx="0" ry="0" transform="translate(67.554137,282.98903)"
            fill="var(--color-front)" stroke-width="0" id="rect9776" x="0" y="0" />
         <circle transform="translate(131.06978,282.99605)" fill="var(--color-front)" stroke-width="0" id="ellipse9778"
            cx="0" cy="0" r="1.879733" />
         <circle transform="translate(139.33682,282.99605)" fill="var(--color-front)" stroke-width="0" id="ellipse9780"
            cx="0" cy="0" r="1.879733" />
         <circle transform="matrix(1.381985,0,0,1.381987,135.54727,289.41493)" fill="var(--color-front)"
            stroke-width="0" id="ellipse9782" cx="0" cy="0" r="1.879733" />
      </g>
      <g transform="matrix(0.595827,0,0,0.595823,19.772594,23.825252)" id="g9810">
         <rect width="93.378944" height="19.196367" rx="2" ry="2" transform="translate(53.907105,276.96983)"
            fill="var(--color-front-low)" stroke-width="0" id="rect9786" x="0" y="0" />
         <rect width="6.4259028" height="6.4259028" rx="0" ry="0" transform="translate(59.696058,282.98903)"
            fill="var(--color-front)" stroke-width="0" id="rect9788" x="0" y="0" />
         <rect width="6.4259028" height="6.4259028" rx="0" ry="0" transform="translate(75.368197,282.98903)"
            fill="var(--color-front)" stroke-width="0" id="rect9790" x="0" y="0" />
         <rect width="6.4259028" height="6.4259028" rx="0" ry="0" transform="translate(82.95973,282.98903)"
            fill="var(--color-front)" stroke-width="0" id="rect9792" x="0" y="0" />
         <rect width="6.4259028" height="6.4259028" rx="0" ry="0" transform="translate(90.482224,282.98903)"
            fill="var(--color-front)" stroke-width="0" id="rect9794" x="0" y="0" />
         <rect width="6.4259028" height="6.4259028" rx="0" ry="0" transform="translate(98.048055,282.98903)"
            fill="var(--color-front)" stroke-width="0" id="rect9796" x="0" y="0" />
         <rect width="6.4259028" height="6.4259028" rx="0" ry="0" transform="translate(105.57379,282.98903)"
            fill="var(--color-front)" stroke-width="0" id="rect9798" x="0" y="0" />
         <rect width="6.4259028" height="6.4259028" rx="0" ry="0" transform="translate(113.44686,282.98903)"
            fill="var(--color-front)" stroke-width="0" id="rect9800" x="0" y="0" />
         <rect width="6.4259028" height="6.4259028" rx="0" ry="0" transform="translate(67.65762,282.98903)"
            fill="var(--color-front)" stroke-width="0" id="rect9802" x="0" y="0" />
         <circle transform="translate(131.06978,282.99605)" fill="var(--color-front)" stroke-width="0" id="ellipse9804"
            cx="0" cy="0" r="1.879733" />
         <circle transform="translate(139.33682,282.99605)" fill="var(--color-front)" stroke-width="0" id="ellipse9806"
            cx="0" cy="0" r="1.879733" />
         <circle transform="matrix(1.381985,0,0,1.381987,135.54727,289.41493)" fill="var(--color-front)"
            stroke-width="0" id="ellipse9808" cx="0" cy="0" r="1.879733" />
      </g>
      <g transform="matrix(0.595827,0,0,0.595823,19.772594,36.897054)" id="g9836">
         <rect width="93.378944" height="19.196367" rx="2" ry="2" transform="translate(53.907105,276.96983)"
            fill="var(--color-front-low)" stroke-width="0" id="rect9812" x="0" y="0" />
         <rect width="6.4259028" height="6.4259028" rx="0" ry="0" transform="translate(59.696058,282.98903)"
            fill="var(--color-front)" stroke-width="0" id="rect9814" x="0" y="0" />
         <rect width="6.4259028" height="6.4259028" rx="0" ry="0" transform="translate(75.368197,282.98903)"
            fill="var(--color-front)" stroke-width="0" id="rect9816" x="0" y="0" />
         <rect width="6.4259028" height="6.4259028" rx="0" ry="0" transform="translate(82.95973,282.98903)"
            fill="var(--color-front)" stroke-width="0" id="rect9818" x="0" y="0" />
         <rect width="6.4259028" height="6.4259028" rx="0" ry="0" transform="translate(90.482224,282.98903)"
            fill="var(--color-front)" stroke-width="0" id="rect9820" x="0" y="0" />
         <rect width="6.4259028" height="6.4259028" rx="0" ry="0" transform="translate(98.048055,282.98903)"
            fill="var(--color-front)" stroke-width="0" id="rect9822" x="0" y="0" />
         <rect width="6.4259028" height="6.4259028" rx="0" ry="0" transform="translate(105.57379,282.98903)"
            fill="var(--color-front)" stroke-width="0" id="rect9824" x="0" y="0" />
         <rect width="6.4259028" height="6.4259028" rx="0" ry="0" transform="translate(113.44686,282.98903)"
            fill="var(--color-front)" stroke-width="0" id="rect9826" x="0" y="0" />
         <rect width="6.4259028" height="6.4259028" rx="0" ry="0" transform="translate(67.65762,282.98903)"
            fill="var(--color-front)" stroke-width="0" id="rect9828" x="0" y="0" />
         <circle transform="translate(131.06978,282.99605)" fill="var(--color-front)" stroke-width="0" id="ellipse9830"
            cx="0" cy="0" r="1.879733" />
         <circle transform="translate(139.33682,282.99605)" fill="var(--color-front)" stroke-width="0" id="ellipse9832"
            cx="0" cy="0" r="1.879733" />
         <circle transform="matrix(1.381985,0,0,1.381987,135.54727,289.41493)" fill="var(--color-front)"
            stroke-width="0" id="ellipse9834" cx="0" cy="0" r="1.879733" />
      </g>
      <g transform="matrix(0.595827,0,0,0.595823,20.168481,50.178784)" id="g9862">
         <rect width="93.378944" height="19.196367" rx="2" ry="2" transform="translate(53.907105,276.96983)"
            fill="var(--color-front-low)" stroke-width="0" id="rect9838" x="0" y="0" />
         <rect width="6.4259028" height="6.4259028" rx="0" ry="0" transform="translate(59.696058,282.98903)"
            fill="var(--color-front)" stroke-width="0" id="rect9840" x="0" y="0" />
         <rect width="6.4259028" height="6.4259028" rx="0" ry="0" transform="translate(75.368197,282.98903)"
            fill="var(--color-front)" stroke-width="0" id="rect9842" x="0" y="0" />
         <rect width="6.4259028" height="6.4259028" rx="0" ry="0" transform="translate(82.95973,282.98903)"
            fill="var(--color-front)" stroke-width="0" id="rect9844" x="0" y="0" />
         <rect width="6.4259028" height="6.4259028" rx="0" ry="0" transform="translate(90.482224,282.98903)"
            fill="var(--color-front)" stroke-width="0" id="rect9846" x="0" y="0" />
         <rect width="6.4259028" height="6.4259028" rx="0" ry="0" transform="translate(98.048055,282.98903)"
            fill="var(--color-front)" stroke-width="0" id="rect9848" x="0" y="0" />
         <rect width="6.4259028" height="6.4259028" rx="0" ry="0" transform="translate(105.57379,282.98903)"
            fill="var(--color-front)" stroke-width="0" id="rect9850" x="0" y="0" />
         <rect width="6.4259028" height="6.4259028" rx="0" ry="0" transform="translate(113.44686,282.98903)"
            fill="var(--color-front)" stroke-width="0" id="rect9852" x="0" y="0" />
         <rect width="6.4259028" height="6.4259028" rx="0" ry="0" transform="translate(67.65762,282.98903)"
            fill="var(--color-front)" stroke-width="0" id="rect9854" x="0" y="0" />
         <circle transform="translate(131.06978,282.99605)" fill="var(--color-front)" stroke-width="0" id="ellipse9856"
            cx="0" cy="0" r="1.879733" />
         <circle transform="translate(139.33682,282.99605)" fill="var(--color-front)" stroke-width="0" id="ellipse9858"
            cx="0" cy="0" r="1.879733" />
         <circle transform="matrix(1.381985,0,0,1.381987,135.54727,289.41493)" fill="var(--color-front)"
            stroke-width="0" id="ellipse9860" cx="0" cy="0" r="1.879733" />
      </g>
      <g transform="matrix(0.699632,0,0,0.644299,15.909184,29.35788)" id="g9902">
         <rect width="39.169025" height="22.479614" rx="2" ry="2"
            transform="matrix(1.134116,0,0,1.393939,57.417969,195.72453)" fill="var(--color-front-low)" stroke-width="0"
            id="rect9864" x="0" y="0" />
         <rect width="39.169025" height="22.479614" rx="2" ry="2"
            transform="matrix(0.867391,0,0,1.1723,60.266781,198.21571)" fill="var(--color-front)" stroke-width="0"
            id="rect9866" x="0" y="0" />
         <g id="g9872">
            <rect width="39.169025" height="22.479614" rx="2" ry="2"
               transform="matrix(0.188982,0,0,1.102159,61.22815,199.00408)" fill="var(--color-front-low)"
               stroke-width="0" id="rect9868" x="0" y="0" />
            <circle transform="translate(64.968351,220.43682)" fill="var(--color-front)" stroke-width="0"
               id="ellipse9870" cx="0" cy="0" r="1.0913219" />
         </g>
         <g transform="translate(8.245644)" id="g9878">
            <rect width="39.169025" height="22.479614" rx="2" ry="2"
               transform="matrix(0.188982,0,0,1.102159,61.22815,199.00408)" fill="var(--color-front-low)"
               stroke-width="0" id="rect9874" x="0" y="0" />
            <circle transform="translate(64.968351,220.43682)" fill="var(--color-front)" stroke-width="0"
               id="ellipse9876" cx="0" cy="0" r="1.0913219" />
         </g>
         <g transform="translate(16.428867)" id="g9884">
            <rect width="39.169025" height="22.479614" rx="2" ry="2"
               transform="matrix(0.188982,0,0,1.102159,61.22815,199.00408)" fill="var(--color-front-low)"
               stroke-width="0" id="rect9880" x="0" y="0" />
            <circle transform="translate(64.968351,220.43682)" fill="var(--color-front)" stroke-width="0"
               id="ellipse9882" cx="0" cy="0" r="1.0913219" />
         </g>
         <g transform="translate(24.603991)" id="g9890">
            <rect width="39.169025" height="22.479614" rx="2" ry="2"
               transform="matrix(0.188982,0,0,1.102159,61.22815,199.00408)" fill="var(--color-front-low)"
               stroke-width="0" id="rect9886" x="0" y="0" />
            <circle transform="translate(64.968351,220.43682)" fill="var(--color-front)" stroke-width="0"
               id="ellipse9888" cx="0" cy="0" r="1.0913219" />
         </g>
         <rect width="2.917155" height="2.2530811" rx="0" ry="0" transform="matrix(1,0,0,0.411765,98.865716,201.25303)"
            fill="var(--color-front)" stroke-width="0" id="rect9892" x="0" y="0" />
         <rect width="2.917155" height="2.2530811" rx="0" ry="0" transform="matrix(1,0,0,0.411765,98.865726,204.27012)"
            fill="var(--color-front)" stroke-width="0" id="rect9894" x="0" y="0" />
         <rect width="2.917155" height="2.2530811" rx="0" ry="0" transform="matrix(1,0,0,0.411765,98.923021,207.15008)"
            fill="var(--color-front)" stroke-width="0" id="rect9896" x="0" y="0" />
         <rect width="2.917155" height="2.2530811" rx="0" ry="0" transform="matrix(1,0,0,0.411765,98.865716,210.04246)"
            fill="var(--color-front)" stroke-width="0" id="rect9898" x="0" y="0" />
         <rect width="2.917155" height="2.2530811" rx="0" ry="0" transform="matrix(1,0,0,1.986043,97.407138,218.70242)"
            fill="var(--color-front)" stroke-width="0" id="rect9900" x="0" y="0" />
      </g>
   </g>
   <path
      fill="var(--color-front)"
      data-select-target="software-blender"
      d="m 67.392648,13.262869 c -0.09631,-0.677724 -0.331039,-1.320432 -0.697898,-1.91007 -0.319924,-0.514598 -0.730439,-0.972271 -1.220428,-1.3612627 l 0.0013,-0.00124 -5.146124,-3.9525234 a 0.14677527,0.14677527 0 0 0 -0.0116,-0.00922 C 60.146788,5.897484 59.915145,5.8253654 59.665855,5.8253654 c -0.249601,0 -0.49031,0.072281 -0.677428,0.2036027 -0.201196,0.1405434 -0.316197,0.3270237 -0.324228,0.5255191 -0.0073,0.1851961 0.08098,0.3633886 0.249409,0.502294 0.331201,0.2613294 0.661661,0.5283451 0.992574,0.7956825 0.321145,0.2595638 0.652051,0.5268691 0.981363,0.7871068 l -6.303182,-0.00431 c -0.720837,0 -1.211658,0.3384918 -1.312627,0.9051945 -0.04437,0.2482223 0.03393,0.521149 0.208942,0.73018 0.185676,0.221594 0.45526,0.343825 0.759059,0.343825 l 0.480511,3.19e-4 c 0.663818,0 1.330553,-0.0017 1.996389,-0.0032 l 0.634966,-0.0014 -5.720674,4.232294 -0.02271,0.01661 c -0.319537,0.244913 -0.528733,0.58829 -0.57387,0.942007 -0.0342,0.26798 0.0283,0.512863 0.180863,0.708435 0.181826,0.233157 0.465705,0.361398 0.799408,0.361398 0.327829,0 0.662337,-0.124225 0.942328,-0.350411 l 3.089254,-2.528172 c -0.0132,0.123453 -0.02924,0.30457 -0.0274,0.436022 0.0035,0.208132 0.07029,0.625746 0.176074,0.964785 0.218575,0.696773 0.586746,1.334276 1.094243,1.894137 0.528055,0.582475 1.171181,1.044322 1.911388,1.372407 0.782549,0.346106 1.623781,0.521793 2.500416,0.521793 h 0.0081 c 0.879431,-0.0021 1.723332,-0.180602 2.508415,-0.530658 0.741425,-0.331972 1.384262,-0.795685 1.910328,-1.378064 0.506855,-0.562717 0.874516,-1.201282 1.09267,-1.897476 a 4.8547311,4.8547311 0 0 0 0.20611,-1.060194 c 0.02696,-0.347904 0.01535,-0.701913 -0.03396,-1.052163 z m -5.627607,3.339594 c -1.931975,0 -3.498673,-1.40148 -3.498673,-3.130402 0,-1.728729 1.56673,-3.130211 3.498673,-3.130211 1.932011,0 3.498546,1.401482 3.498546,3.130211 6.6e-5,1.728922 -1.566535,3.130402 -3.498546,3.130402 z m 2.017622,-3.405481 c 0.0285,0.51601 -0.177614,0.995141 -0.539558,1.349824 -0.368174,0.361333 -0.893532,0.58829 -1.481019,0.58829 -0.58723,0 -1.112688,-0.226957 -1.480987,-0.58829 -0.361782,-0.354683 -0.567471,-0.83375 -0.539138,-1.349406 0.02775,-0.501235 0.272246,-0.94368 0.640521,-1.256955 0.362132,-0.308038 0.848398,-0.495965 1.379571,-0.495965 0.531238,0 1.017373,0.18799 1.37954,0.495965 0.368465,0.313275 0.613026,0.755399 0.64107,1.256537 z"
      id="path461" style="fill-opacity:1;stroke-width:0.0321241" />
   <g 
      fill="var(--color-front)" data-select-target="software-unreal" style="clip-rule:evenodd;fill-rule:evenodd;image-rendering:optimizeQuality;shape-rendering:geometricPrecision;text-rendering:geometricPrecision"
      id="g2176" transform="matrix(0.04996477,0,0,0.04996477,-246.02585,-383.76771)">
      <path
         d="m 6375.95,7963.3935 c 6.7465,-11.1124 11.0407,-19.1632 19.485,-29.5563 5.9573,-7.3324 19.4831,-21.6992 29.9592,-21.6992 3.3111,0 7.2363,2.8859 7.2363,6.0299 v 70.7535 c -0.076,8.3812 -9.9284,7.357 -14.8745,5.628 2.2226,4.2001 8.7883,10.0259 12.4065,12.9197 15.676,12.5359 36.546,17.4944 55.9959,20.2566 l 21.0695,-22.3722 c 1.2086,0.774 19.347,16.1473 19.8743,16.9345 21.4371,-12.1854 43.4204,-38.5292 52.6625,-59.4974 -3.4386,2.3031 -9.3577,10.6679 -21.4332,17.1595 -5.2899,2.8439 -14.2063,5.3034 -18.1115,-0.7481 0,-27.448 -1.3701,-55.6837 -0.2821,-82.7704 0.1098,-2.7319 1.7131,-4.7586 2.8891,-6.6338 5.646,-8.9996 12.7088,-17.3114 19.273,-25.6012 1.4504,-1.8315 2.5584,-2.9904 4.0469,-4.9479 -24.6054,5.0889 -39.5679,15.4597 -53.4202,27.6597 -1.0119,1.0254 -1.7727,1.9551 -2.9107,2.7172 -6.1652,-3.2621 -9.8043,-3.618 -17.6883,-3.618 5.2638,4.3328 8.7493,8.2293 10.5411,15.1868 1.6638,6.4624 0.7149,17.5022 0.7149,25.416 v 51.859 c -2.6303,0.702 -19.952,18.0204 -31.6244,6.3479 -3.384,-3.384 -2.8103,-4.6688 -2.8099,-10.9836 l -0.4018,-83.1278 c -0.8798,0.4512 -3.5109,2.3414 -6.6914,0.885 -5.1984,-2.3808 -4.8288,-11.1312 -4.8288,-15.9604 0,-5.2094 4.6219,-12.4096 7.2164,-15.2958 6.8003,-7.5633 6.4068,-6.4145 11.6348,-10.0892 -3.6812,0.3063 -15.6316,5.2038 -18.9582,6.5851 -22.4236,9.3004 -56.5775,39.0173 -71.6929,66.4287 -7.3014,13.2414 -10.6604,27.2611 -9.2775,40.1342 z m 107.8651,120.5687 c 80.0684,0 144.9767,-64.9082 144.9767,-144.9765 0,-80.0689 -64.9083,-144.9771 -144.9767,-144.9771 -80.0683,0 -144.9765,64.9082 -144.9765,144.9771 0,80.0683 64.9082,144.9765 144.9765,144.9765 z m 0,-18.8408 c 69.6627,0 126.1359,-56.4732 126.1359,-126.1357 0,-69.6629 -56.4732,-126.1359 -126.1359,-126.1359 -69.6628,0 -126.1356,56.473 -126.1356,126.1359 0,69.6625 56.4728,126.1357 126.1356,126.1357 z"
         id="path2167" sodipodi:nodetypes="ccsscccccccccccscccccscscccscccccssssssssss"
         style="fill-opacity:1;stroke-width:0.0333232" />
   </g>
</svg>