<svg xmlns="http://www.w3.org/2000/svg" xmlns:xlink="http://www.w3.org/1999/xlink" viewBox="0 0 300 300">
    <path d="M50.858369,0L0,17.51073L-0.000001,300h300v-300h-249.14163Z" transform="translate(.000001 0)" class="paper"
        stroke-width="0.6" />
    <path d="M17.85422,30.16041L0.000001,17.51073L50.85837,0L17.85422,30.16041Z" transform="translate(.000002 0)"
        class="folded-corner" stroke-width="0.6" />
    <ellipse rx="3.558748" ry="3.558748" transform="translate(10.459187 40)" class="folded-corner"
        stroke-width="0" />
    <ellipse rx="3.558748" ry="3.558748" transform="translate(10.459187 60)" class="folded-corner"
        stroke-width="0" />
    <ellipse rx="3.558748" ry="3.558748" transform="translate(10.459187 80)" class="folded-corner"
        stroke-width="0" />
    <ellipse rx="3.558748" ry="3.558748" transform="translate(10.459187 100)" class="folded-corner"
        stroke-width="0" />
    <ellipse rx="3.558748" ry="3.558748" transform="translate(10.459187 120)" class="folded-corner"
        stroke-width="0" />
    <ellipse rx="3.558748" ry="3.558748" transform="translate(10.459187 140)" class="folded-corner"
        stroke-width="0" />
    <ellipse rx="3.558748" ry="3.558748" transform="translate(10.459187 160)" class="folded-corner"
        stroke-width="0" />
    <ellipse rx="3.558748" ry="3.558748" transform="translate(10.459187 180)" class="folded-corner"
        stroke-width="0" />
    <ellipse rx="3.558748" ry="3.558748" transform="translate(10.459187 200)" class="folded-corner"
        stroke-width="0" />
    <ellipse rx="3.558748" ry="3.558748" transform="translate(10.459187 220)" class="folded-corner"
        stroke-width="0" />
    <ellipse rx="3.558748" ry="3.558748" transform="translate(10.459187 240)" class="folded-corner"
        stroke-width="0" />
    <ellipse rx="3.558748" ry="3.558748" transform="translate(10.459187 260)" class="folded-corner"
        stroke-width="0" />
    <ellipse rx="3.558748" ry="3.558748" transform="translate(10.459187 280)" class="folded-corner"
        stroke-width="0" /> 
</svg>